<svg t="1684153672685" class="icon" viewBox="0 0 1024 1024" version="1.1" xmlns="http://www.w3.org/2000/svg" p-id="5439" width="48" height="48"><path d="M506.6 540.8c-106.65 0-193.5-86.85-193.5-193.5s86.85-193.5 193.5-193.5 193.5 86.85 193.5 193.5-86.85 193.5-193.5 193.5z m0-342c-81.9 0-148.5 66.6-148.5 148.5s66.6 148.5 148.5 148.5 148.5-66.6 148.5-148.5c-0.45-81.9-67.05-148.5-148.5-148.5z" fill="#000000" p-id="5440"></path><path d="M835.55 869.3c-12.6 0-22.5-10.35-22.5-22.5 0-168.75-137.25-306.45-306.45-306.45s-306.45 137.25-306.45 306.45c0 12.6-10.35 22.5-22.5 22.5s-22.5-10.35-22.5-22.5c0-193.95 157.95-351.9 351.9-351.9s351.9 157.95 351.9 351.9c-0.9 12.6-10.8 22.5-23.4 22.5z" fill="#000000" p-id="5441"></path></svg>