<svg t="1684143021109" class="icon" viewBox="0 0 1024 1024" version="1.1" xmlns="http://www.w3.org/2000/svg" p-id="11230" width="48" height="48"><path d="M513.4 483.2c-8.5 0-17-2.5-24.3-7.4L86.9 302.9c-3.7-1.6-7.1-3.9-10-6.8-16.9-16.9-16.8-44.4 0.2-61.4 3.1-3.1 6.9-5.6 11-7.2L492 70.3c14.5-9.6 33.5-9.7 47.9-0.2l395.9 156.7c4.1 1.6 7.8 4 10.8 7.1 16.9 16.9 16.8 44.4-0.2 61.4-2.8 2.8-6.2 5.1-9.9 6.7L538.2 475.4c-7.4 5.2-16.1 7.8-24.8 7.8z m-349-216.7l348.9 150 346.6-150.9-343.6-136.1-351.9 137z m759.4 6.2zM501.4 120.8zM451.7 959.2c-5.5 0-11.2-1.1-16.6-3.3l-345-141c-10.7-4.4-19-12.6-23.6-23-3.5-8.1-4.4-17-2.8-25.5L63.3 384c0-4.2 0.8-8.3 2.4-12.2 9.1-22 34.5-32.5 56.8-23.4 0.2 0.1 0.5 0.2 0.7 0.3l345.8 152c10.4 4.4 18.5 12.5 23 22.8 3.5 8.1 4.4 17 2.8 25.6l-0.5 371.3c0 4.2-0.8 8.3-2.4 12.1-6.9 16.7-23.1 26.7-40.2 26.7z m7.6-62.5zM127.8 761.2l302.6 123.6 0.5-331-303.5-133.4 0.4 340.8z m316.3-201.5c0.1 0 0.1 0 0 0 0.1 0 0.1 0 0 0zM573.4 959.2c-17.1 0-33.3-10.1-40.1-26.7-1.6-3.9-2.4-8-2.4-12.2l0.4-373.4c-1.6-8.5-0.7-17.5 2.8-25.5 4.5-10.3 12.7-18.4 23-22.8L899 348.7c0.2-0.1 0.4-0.2 0.7-0.3 22.2-9.1 47.7 1.4 56.8 23.4 1.6 3.8 2.4 8 2.4 12.1l0.5 373.3c1.7 8.5 0.7 17.5-2.8 25.6-4.5 10.3-12.7 18.4-23 22.8l-342.8 150c-0.2 0.1-0.4 0.2-0.7 0.3-5.5 2.3-11.1 3.3-16.7 3.3z m4.5-32.9z m17.4-374.6l-0.4 332.2 300.4-131.5-0.5-332.1-299.5 131.4z m-13.3 5.9z" fill="#2c2c2c" p-id="11231"></path></svg>